<svg width="85" height="83" viewBox="0 0 85 83" fill="none" xmlns="http://www.w3.org/2000/svg">
<path d="M22.8976 72.9836C22.8963 71.8452 22.4434 70.7539 21.6384 69.9489C20.8334 69.1446 19.7422 68.6916 18.6044 68.6904H12.8801C12.7811 68.6904 12.6885 68.6661 12.5907 68.661L22.9161 78.8937C22.9142 78.8304 22.8976 78.7716 22.8976 78.7077L22.8976 72.9836Z" fill="url(#paint0_linear_15_143)"/>
<path d="M45.322 44.2839C44.9265 44.9681 45.161 45.8433 45.8452 46.2381L47.0846 46.9536L43.5069 53.1501V53.1507C43.1121 53.8349 43.3466 54.7102 44.0308 55.1056L45.2702 55.8211L41.6919 62.0182C41.3149 62.7012 41.5539 63.5598 42.2292 63.9501C42.9051 64.3398 43.7682 64.1168 44.1713 63.4492L47.749 57.2521L48.9884 57.9677C49.6726 58.3625 50.5479 58.128 50.9433 57.4438L54.521 51.2474L55.7604 51.9629L55.7597 51.9623C56.4446 52.3577 57.3198 52.1233 57.7146 51.439L74.8874 21.6942L62.4941 14.5389L45.322 44.2839Z" fill="url(#paint1_linear_15_143)"/>
<path d="M8.56737 66.6886L7.51133 65.6421L7.75665 65.469C7.36695 64.6921 7.16124 63.8354 7.15612 62.9658V22.8961C7.15739 21.3781 7.76112 19.9234 8.83447 18.8502C9.90713 17.7769 11.3625 17.1738 12.8804 17.1718H59.322L61.5357 13.3374C61.65 12.1254 61.2508 10.9206 60.4343 10.0171C59.6178 9.1138 58.4602 8.5944 57.2424 8.58545H4.29311C3.15465 8.58545 2.06278 9.03776 1.25729 9.84274C0.452314 10.6484 0 11.7402 0 12.8786V67.2589C0 68.3974 0.452314 69.4899 1.25729 70.2948C2.06291 71.0997 3.1548 71.5521 4.29311 71.5521H13.4743C13.0654 71.1291 8.84765 66.9957 8.56651 66.6884L8.56737 66.6886Z" fill="url(#paint2_linear_15_143)"/>
<path d="M84.4317 18.2581C84.2368 17.5234 83.757 16.898 83.0977 16.5198L79.1822 14.2588L82.0437 9.3018H82.0443C82.6135 8.31604 82.7675 7.14376 82.473 6.04421C82.1785 4.94408 81.4585 4.00687 80.4728 3.43706L75.5152 0.574938C74.5295 0.00570161 73.3578 -0.148264 72.2576 0.146257C71.1575 0.440777 70.2203 1.16077 69.651 2.14647L63.9267 12.061L76.3201 19.2164L77.7511 16.7376L81.6673 18.9985L76.1864 28.4921H76.1858C75.8089 29.175 76.0484 30.0337 76.7237 30.4235C77.399 30.8132 78.2621 30.5908 78.6652 29.9232L84.1455 20.4296C84.5275 19.7729 84.6304 18.9909 84.4317 18.2581Z" fill="url(#paint3_linear_15_143)"/>
<path d="M56.4744 53.5849C55.9723 53.5849 55.4791 53.4527 55.044 53.2023L52.1825 58.1593C51.7992 58.8135 51.1744 59.2901 50.4422 59.4856C49.7107 59.6817 48.9306 59.5814 48.2725 59.2064L45.4104 64.1646C44.8917 65.0341 43.9519 65.5644 42.9393 65.5599C41.9267 65.5548 40.9921 65.0156 40.481 64.1416C39.9706 63.267 39.9597 62.188 40.4523 61.3037L41.9715 58.6721H32.9143C32.1349 58.6568 31.5107 58.0205 31.5107 57.2411C31.5107 56.4617 32.1349 55.8254 32.9143 55.81H42.6646C42.3113 55.4337 42.0667 54.9693 41.9568 54.4652C41.8462 53.9618 41.8737 53.4373 42.0373 52.9479H32.9143C32.1342 52.9326 31.5107 52.2962 31.5107 51.5168C31.5107 50.7374 32.1349 50.1011 32.9143 50.0858H43.6242L45.1294 47.478C44.6016 47.1707 44.1864 46.7017 43.9449 46.1408C43.7028 45.5799 43.6465 44.9563 43.7845 44.3615H32.9142C32.1341 44.3462 31.5106 43.7099 31.5106 42.9305C31.5106 42.1511 32.1348 41.5148 32.9142 41.4994H45.2763L46.9285 38.6373H32.9142C32.1341 38.622 31.5106 37.9856 31.5106 37.2062C31.5106 36.4268 32.1348 35.7905 32.9142 35.7752H48.5811L58.4957 18.6024H12.88C11.7415 18.6024 10.6496 19.0547 9.84414 19.8597C9.03917 20.6647 8.58685 21.7572 8.58685 22.8955V62.9653C8.58685 64.1037 9.03917 65.1963 9.84414 66.0011C10.6498 66.8061 11.7417 67.2584 12.88 67.2584H18.6042C20.1222 67.2584 21.5782 67.8615 22.6521 68.9348C23.7254 70.0087 24.3285 71.4647 24.3285 72.9826V78.7069C24.3285 79.8454 24.7808 80.9379 25.5858 81.7427C26.3914 82.5477 27.4833 83 28.6216 83H65.8292C66.9677 83 68.0602 82.5477 68.865 81.7427C69.6699 80.9377 70.1223 79.8452 70.1223 78.7069V32.8115L58.9549 52.1529C58.4419 53.0377 57.497 53.5833 56.4749 53.584L56.4744 53.5849ZM24.3287 55.81C24.3287 56.1895 24.1779 56.5537 23.9096 56.822C23.6412 57.0903 23.2771 57.2411 22.8976 57.2411H18.6044C17.8141 57.2411 17.1734 56.6003 17.1734 55.81V51.5168C17.1734 50.7266 17.8141 50.0858 18.6044 50.0858C25.1695 50.1177 24.2955 49.2501 24.3287 55.81ZM24.3287 41.4994C24.3287 41.8789 24.1779 42.2431 23.9096 42.5114C23.6412 42.7797 23.2771 42.9305 22.8976 42.9305H18.6044C17.8141 42.9305 17.1734 42.2897 17.1734 41.4994V37.2062C17.1734 36.4159 17.8141 35.7752 18.6044 35.7752C25.1695 35.8071 24.2955 34.9395 24.3287 41.4994ZM27.9063 27.1888C27.9057 26.8093 28.0564 26.4451 28.3248 26.1768C28.5937 25.9085 28.9572 25.7577 29.3374 25.7577H49.3723C50.1625 25.7577 50.8033 26.3985 50.8033 27.1888C50.8033 27.9791 50.1625 28.6198 49.3723 28.6198H29.3374C28.9572 28.6198 28.5937 28.4691 28.3248 28.2007C28.0564 27.9324 27.9057 27.5683 27.9063 27.1888Z" fill="url(#paint4_linear_15_143)"/>
<defs>
<linearGradient id="paint0_linear_15_143" x1="17.7534" y1="68.661" x2="17.7534" y2="78.8937" gradientUnits="userSpaceOnUse">
<stop stop-color="#E5EFEC"/>
<stop offset="1" stop-color="#FEFFFF"/>
</linearGradient>
<linearGradient id="paint1_linear_15_143" x1="58.2004" y1="14.5389" x2="58.2004" y2="64.1418" gradientUnits="userSpaceOnUse">
<stop stop-color="#E5EFEC"/>
<stop offset="1" stop-color="#FEFFFF"/>
</linearGradient>
<linearGradient id="paint2_linear_15_143" x1="30.7775" y1="8.58545" x2="30.7775" y2="71.5521" gradientUnits="userSpaceOnUse">
<stop stop-color="#E5EFEC"/>
<stop offset="1" stop-color="#FEFFFF"/>
</linearGradient>
<linearGradient id="paint3_linear_15_143" x1="74.2287" y1="0" x2="74.2287" y2="30.6153" gradientUnits="userSpaceOnUse">
<stop stop-color="#E5EFEC"/>
<stop offset="1" stop-color="#FEFFFF"/>
</linearGradient>
<linearGradient id="paint4_linear_15_143" x1="39.3546" y1="18.6024" x2="39.3546" y2="83" gradientUnits="userSpaceOnUse">
<stop stop-color="#E5EFEC"/>
<stop offset="1" stop-color="#FEFFFF"/>
</linearGradient>
</defs>
</svg>
