<svg width="88" height="88" viewBox="0 0 88 88" fill="none" xmlns="http://www.w3.org/2000/svg">
<path d="M56.1863 68.2288C58.8845 68.2415 61.4839 67.2137 63.4438 65.3592C65.4038 63.5047 66.5736 60.9661 66.71 58.2712C66.71 58.2263 66.71 58.1814 66.71 58.1275L76.9191 46.6601C77.9558 45.4582 79.4156 44.7018 80.9954 44.5478C82.5751 44.3938 84.1535 44.8542 85.4028 45.8333C86.0212 46.3448 86.5309 46.975 86.902 47.6866C87.273 48.3982 87.4978 49.1769 87.5631 49.9768C87.6285 50.7766 87.533 51.5815 87.2824 52.3439C87.0317 53.1063 86.631 53.8108 86.1038 54.4159L65.7214 77.7819C64.3782 79.3214 62.7205 80.5551 60.8603 81.4C59 82.2449 56.9802 82.6813 54.9371 82.6797H24.3007L18.9804 88L0 69.4959L13.5972 56.0155C16.3585 53.2711 19.8366 51.3596 23.6335 50.4998C27.4305 49.6399 31.3928 49.8665 35.067 51.1536L38.0507 52.2051H56.4289C57.2043 52.2047 57.9719 52.3601 58.6861 52.6622C59.4002 52.9642 60.0464 53.4066 60.5863 53.9633C61.1261 54.5199 61.5486 55.1793 61.8286 55.9023C62.1087 56.6254 62.2406 57.3974 62.2165 58.1724C62.1175 59.6964 61.4362 61.124 60.3136 62.1595C59.1911 63.1951 57.7133 63.7593 56.1863 63.7353H45.1593C44.5634 63.7353 43.992 63.972 43.5706 64.3933C43.1493 64.8147 42.9126 65.3862 42.9126 65.982C42.9126 66.5779 43.1493 67.1494 43.5706 67.5707C43.992 67.9921 44.5634 68.2288 45.1593 68.2288H56.1863ZM45.0605 25.2353C46.5435 26.0759 48.0912 26.7971 49.6887 27.3922C50.3717 27.6618 51.0547 27.9404 51.7288 28.2369C52.5334 28.5807 53.2865 29.0343 53.9665 29.585C54.3624 29.8559 54.6752 30.2316 54.8699 30.67C55.0647 31.1085 55.1338 31.5924 55.0695 32.0678C55.0051 32.5432 54.8099 32.9914 54.5057 33.3623C54.2014 33.7332 53.8001 34.0123 53.3464 34.1683C52.1271 34.6811 50.792 34.855 49.482 34.6716C47.3201 34.4347 45.219 33.8075 43.281 32.8203C42.8762 32.5702 42.4167 32.4221 41.942 32.3889C40.8636 32.3889 40.531 33.4763 40.3423 34.0605C39.9918 35.1838 39.6773 36.3162 39.3717 37.4485C38.8685 39.2998 39.183 39.9918 40.9175 40.8366C42.8235 41.7021 44.8461 42.2834 46.9208 42.5621C47.2504 42.5984 47.5755 42.6677 47.8913 42.7688C47.9595 43.1149 47.9866 43.4678 47.9722 43.8203V46.04C47.9541 46.3233 47.9961 46.6072 48.0955 46.8731C48.1948 47.139 48.3493 47.3809 48.5487 47.5829C48.7482 47.7849 48.9881 47.9424 49.2527 48.0451C49.5173 48.1478 49.8007 48.1934 50.0842 48.1789H51.6119H53.4093C53.6863 48.1942 53.9633 48.1497 54.2215 48.0485C54.4797 47.9472 54.7131 47.7915 54.9058 47.592C55.0985 47.3925 55.246 47.1538 55.3382 46.8922C55.4305 46.6306 55.4653 46.3522 55.4404 46.076C55.4404 45.7435 55.4404 45.402 55.4404 45.0694C55.4404 44.3864 55.4404 43.6944 55.4404 43.0114C55.4404 42.3284 55.6021 42.1127 56.3391 41.906C58.7207 41.2806 60.8438 39.9187 62.4052 38.0147C63.4128 36.7994 64.1398 35.3767 64.5344 33.8481C64.9289 32.3195 64.9814 30.7227 64.6879 29.1716C64.3579 27.5181 63.6674 25.9578 62.6654 24.6017C61.6635 23.2456 60.3749 22.1272 58.8913 21.326C57.2015 20.4345 55.461 19.6423 53.6789 18.9534L52.9959 18.6748C51.9521 18.2561 50.9721 17.6935 50.0842 17.0033C49.777 16.7809 49.5327 16.4827 49.3752 16.1378C49.2177 15.7928 49.1523 15.4129 49.1855 15.0351C49.2572 14.6492 49.4284 14.2887 49.6822 13.9893C49.936 13.6898 50.2635 13.4617 50.6324 13.3276C51.1704 13.1141 51.7431 13.0014 52.3219 12.9951C54.6987 12.8511 57.0726 13.3215 59.2149 14.3611C61.4257 15.4306 61.911 13.8219 62.0907 13.1389C62.3873 12.2402 62.6479 11.3415 62.9085 10.3979L63.2141 9.31944C63.3072 9.06602 63.3485 8.79643 63.3353 8.52674C63.3222 8.25705 63.2549 7.99276 63.1375 7.74959C63.0201 7.50643 62.855 7.28937 62.652 7.11133C62.449 6.93329 62.2123 6.7979 61.9559 6.71324C60.4333 6.04141 58.8288 5.57306 57.1838 5.32026C55.701 5.0866 55.701 5.0866 55.701 3.59477C55.701 0.458333 55.4583 0 52.3938 0H50.7402C48.9428 0.0539216 48.4575 0.58415 48.4126 2.34559C48.4126 2.75899 48.4126 3.1634 48.4126 3.56781V4.22386C48.4126 5.54494 48.4126 5.54494 47.1005 6.02124C42.3194 7.75572 39.7492 11.027 39.4616 15.7361C39.201 19.6993 41.0433 22.8268 45.0605 25.2353Z" fill="url(#paint0_linear_2_408)"/>
<defs>
<linearGradient id="paint0_linear_2_408" x1="43.7915" y1="0" x2="43.7915" y2="88" gradientUnits="userSpaceOnUse">
<stop stop-color="#03A673"/>
<stop offset="1" stop-color="#006443"/>
</linearGradient>
</defs>
</svg>
