<svg width="332" height="182" viewBox="0 0 332 182" fill="none" xmlns="http://www.w3.org/2000/svg">
<path fill-rule="evenodd" clip-rule="evenodd" d="M184.177 144.548C195.082 137.278 199.929 123.949 195.082 111.833C204.776 104.562 208.411 94.8689 205.987 83.9637C220.528 82.752 236.28 82.752 250.82 81.5403C266.572 81.5403 282.324 80.3286 299.288 79.1169C308.981 77.9052 328.368 76.6935 330.792 64.5766C339.273 30.6493 300.499 29.4376 278.689 29.4376C248.397 29.4376 219.316 30.6493 190.235 29.4376C184.177 29.4376 169.637 29.4376 155.096 29.4376L152.673 24.5908C145.403 11.2622 129.651 2.78038 113.899 0.356996C76.3365 -4.48977 55.7378 41.5545 10.9052 45.1896H0V163.935H10.9052C60.5845 161.512 138.133 202.709 179.33 165.147L180.542 163.935C185.389 157.877 185.389 150.607 184.177 144.548ZM10.9052 151.818V56.0948C63.0079 52.4597 79.9716 7.62714 112.687 11.2622C126.016 13.6856 138.133 20.9557 142.979 30.6493C124.804 31.861 99.3586 30.6493 99.3586 35.496C99.3586 42.7662 258.09 40.3428 278.689 41.5545C298.076 40.3428 325.945 40.3428 319.886 62.1532C317.463 70.6351 215.681 71.8467 187.812 73.0584C197.506 83.9637 201.141 103.351 178.119 106.986C193.871 117.891 184.177 139.701 167.213 138.49C172.06 140.913 176.907 149.395 172.06 156.665C135.709 189.381 60.5845 150.607 10.9052 151.818Z" fill="#F8FDFB"/>
</svg>
