<svg width="90" height="87" viewBox="0 0 90 87" fill="none" xmlns="http://www.w3.org/2000/svg">
<path d="M80.3571 0H9.64286C4.32536 0 0 4.32536 0 9.64286V61.0714C0 66.3889 4.32536 70.7143 9.64286 70.7143H12.8571V83.5714C12.8571 84.8711 13.6382 86.0432 14.8414 86.5404C16.0489 87.0396 17.4279 86.76 18.345 85.8439L33.4736 70.7143H80.3571C85.6746 70.7143 90 66.3889 90 61.0714V9.64286C90 4.32536 85.6746 0 80.3571 0ZM32.1429 48.2143H22.5V28.9286H32.1429V48.2143ZM67.3286 33.3471L63.6911 46.095C63.3332 47.3496 62.1879 48.2143 60.885 48.2143H38.5714V28.9286L49.0789 17.1825C49.6404 16.4796 50.4911 16.0714 51.39 16.0714C53.025 16.0714 54.6429 17.3968 54.6429 19.0318V28.9286H63.12C66.0279 28.9286 68.1279 30.5464 67.3286 33.3471Z" fill="url(#paint0_linear_15_262)"/>
<defs>
<linearGradient id="paint0_linear_15_262" x1="45" y1="0" x2="45" y2="86.7853" gradientUnits="userSpaceOnUse">
<stop stop-color="#03A673"/>
<stop offset="1" stop-color="#006443"/>
</linearGradient>
</defs>
</svg>
