<svg width="139" height="83" viewBox="0 0 139 83" fill="none" xmlns="http://www.w3.org/2000/svg">
<path d="M53.0278 36.8889H6.91666C2.99722 36.8889 0 39.8861 0 43.8056V76.0833C0 80.0028 2.99722 83 6.91666 83H53.0278C56.9472 83 59.9444 80.0028 59.9444 76.0833V43.8056C59.9444 39.8861 56.9472 36.8889 53.0278 36.8889ZM36.8889 71.4722H23.0555L25.3611 60.4056C23.9778 59.2528 23.0555 57.4084 23.0555 55.3334C23.0555 51.4139 26.0528 48.4167 29.9722 48.4167C33.8917 48.4167 36.8889 51.4139 36.8889 55.3334C36.8889 57.4084 35.9667 59.2528 34.5833 60.4056L36.8889 71.4722Z" fill="url(#paint0_linear_15_69)"/>
<path d="M6.91664 32.2778H13.8333V25.3611C13.8333 16.3694 20.9805 9.22222 29.9722 9.22222C38.9639 9.22222 46.1111 16.3694 46.1111 25.3611V32.2778H53.0277C53.7194 32.2778 54.6416 32.2778 55.3333 32.5083V25.3611C55.3333 11.2972 44.0361 0 29.9722 0C15.9083 0 4.61108 11.2972 4.61108 25.3611V32.5083C5.30275 32.2778 6.22497 32.2778 6.91664 32.2778Z" fill="url(#paint1_linear_15_69)"/>
<path d="M64.5556 41.5V46.1111H133.722V73.7778H64.5556V78.3889H138.333V41.5H64.5556Z" fill="url(#paint2_linear_15_69)"/>
<path d="M83.2318 58.5611L81.3874 54.1805L76.0846 56.4861V50.7222H71.4735V56.4861L66.1707 54.1805L64.3263 58.5611L67.7846 59.9444L64.3263 61.3277L66.1707 65.7083L71.4735 63.4027V69.1666H76.0846V63.4027L81.3874 65.7083L83.2318 61.3277L79.7735 59.9444L83.2318 58.5611Z" fill="url(#paint3_linear_15_69)"/>
<path d="M106.287 58.5611L104.443 54.1805L99.1402 56.4861V50.7222H94.5291V56.4861L89.2263 54.1805L87.3818 58.5611L90.8402 59.9444L87.3818 61.3277L89.2263 65.7083L94.5291 63.4027V69.1666H99.1402V63.4027L104.443 65.7083L106.287 61.3277L102.829 59.9444L106.287 58.5611Z" fill="url(#paint4_linear_15_69)"/>
<path d="M129.343 58.5611L127.498 54.1805L122.196 56.4861V50.7222H117.585V56.4861L112.282 54.1805L110.437 58.5611L113.896 59.9444L110.437 61.3277L112.282 65.7083L117.585 63.4027V69.1666H122.196V63.4027L127.498 65.7083L129.343 61.3277L125.885 59.9444L129.343 58.5611Z" fill="url(#paint5_linear_15_69)"/>
<defs>
<linearGradient id="paint0_linear_15_69" x1="29.9722" y1="36.8889" x2="29.9722" y2="83" gradientUnits="userSpaceOnUse">
<stop stop-color="#E5EFEC"/>
<stop offset="1" stop-color="#FEFFFF"/>
</linearGradient>
<linearGradient id="paint1_linear_15_69" x1="29.9722" y1="0" x2="29.9722" y2="32.5083" gradientUnits="userSpaceOnUse">
<stop stop-color="#E5EFEC"/>
<stop offset="1" stop-color="#FEFFFF"/>
</linearGradient>
<linearGradient id="paint2_linear_15_69" x1="101.444" y1="41.5" x2="101.444" y2="78.3889" gradientUnits="userSpaceOnUse">
<stop stop-color="#E5EFEC"/>
<stop offset="1" stop-color="#FEFFFF"/>
</linearGradient>
<linearGradient id="paint3_linear_15_69" x1="73.7791" y1="50.7222" x2="73.7791" y2="69.1666" gradientUnits="userSpaceOnUse">
<stop stop-color="#E5EFEC"/>
<stop offset="1" stop-color="#FEFFFF"/>
</linearGradient>
<linearGradient id="paint4_linear_15_69" x1="96.8346" y1="50.7222" x2="96.8346" y2="69.1666" gradientUnits="userSpaceOnUse">
<stop stop-color="#E5EFEC"/>
<stop offset="1" stop-color="#FEFFFF"/>
</linearGradient>
<linearGradient id="paint5_linear_15_69" x1="119.89" y1="50.7222" x2="119.89" y2="69.1666" gradientUnits="userSpaceOnUse">
<stop stop-color="#E5EFEC"/>
<stop offset="1" stop-color="#FEFFFF"/>
</linearGradient>
</defs>
</svg>
