<svg width="87" height="83" viewBox="0 0 87 83" fill="none" xmlns="http://www.w3.org/2000/svg">
<path d="M81.7915 66.0782H4.43229C2.81057 66.084 1.2392 65.5127 0.000351312 64.4666V65.6753C0.000351312 66.8509 0.467306 67.9784 1.29831 68.8094C2.12931 69.6405 3.25678 70.1074 4.43246 70.1074H81.7916C82.9673 70.1074 84.0947 69.6404 84.9258 68.8094C85.7568 67.9784 86.2237 66.851 86.2237 65.6753V64.4342C84.9891 65.4918 83.4178 66.0746 81.7918 66.0782H81.7915ZM67.6896 31.8302C67.6896 32.6447 67.1989 33.3793 66.4463 33.6914C65.693 34.003 64.8268 33.831 64.2504 33.2547C63.6741 32.6784 63.5022 31.8121 63.8137 31.0588C64.126 30.3062 64.8606 29.8155 65.6749 29.8155C66.2095 29.8155 66.7218 30.0278 67.0995 30.4055C67.4773 30.7832 67.6896 31.2956 67.6896 31.8302ZM49.9615 31.8302C49.9615 33.6469 49.2398 35.3887 47.9555 36.6738C46.6705 37.9581 44.9285 38.6798 43.1119 38.6798C41.2952 38.6798 39.5534 37.9581 38.2683 36.6738C36.984 35.3888 36.2623 33.6469 36.2623 31.8302C36.2623 30.0135 36.9839 28.2717 38.2683 26.9866C39.5533 25.7023 41.2952 24.9806 43.1119 24.9806C44.9271 24.9849 46.6669 25.708 47.9505 26.9916C49.2341 28.2751 49.9572 30.0148 49.9615 31.8302ZM22.5634 31.8302C22.5634 32.6447 22.0727 33.3793 21.3202 33.6914C20.5669 34.003 19.7006 33.831 19.1243 33.2547C18.5479 32.6784 18.376 31.8121 18.6875 31.0588C18.9998 30.3062 19.7344 29.8155 20.5488 29.8155C21.0833 29.8155 21.5956 30.0278 21.9734 30.4055C22.3511 30.7832 22.5634 31.2956 22.5634 31.8302ZM71.0253 13.0061C71.2167 13.2975 71.4325 13.5724 71.6699 13.8278C71.5929 13.4695 71.3548 13.1666 71.0253 13.0061ZM14.6175 13.8278C14.855 13.5724 15.0701 13.2975 15.2622 13.0061C14.9075 13.15 14.6434 13.4558 14.5528 13.8278H14.6175ZM71.0253 57.2134H71.5893L71.7023 56.327C71.426 56.6011 71.1728 56.8975 70.9447 57.2134H71.0253ZM14.6175 56.327L14.7305 57.2134H15.2946C15.0867 56.9004 14.855 56.604 14.601 56.327H14.6175ZM69.4136 8.86344H16.8407C16.5745 10.8858 15.6485 12.7638 14.2059 14.2064C12.7633 15.6489 10.8855 16.5749 8.86295 16.8412V46.8179C10.8969 47.0884 12.7841 48.0259 14.2282 49.4844C15.6722 50.9428 16.5909 52.8394 16.8407 54.8761H69.3805C69.6344 52.827 70.5647 50.9218 72.0245 49.4619C73.4842 48.002 75.3896 47.0717 77.4387 46.8179V16.8412C75.4018 16.5915 73.5054 15.6727 72.047 14.2287C70.5886 12.7847 69.651 10.8974 69.3805 8.86344H69.4136ZM20.5484 36.2615C19.3728 36.2615 18.2453 35.7945 17.4143 34.9635C16.5832 34.1325 16.1163 33.005 16.1163 31.8294C16.1163 30.6537 16.5833 29.5263 17.4143 28.6952C18.2453 27.8642 19.3727 27.3973 20.5484 27.3973C21.7241 27.3973 22.8515 27.8642 23.6826 28.6952C24.5136 29.5262 24.9805 30.6537 24.9805 31.8294C24.9805 33.005 24.5136 34.1325 23.6826 34.9635C22.8516 35.7946 21.7241 36.2615 20.5484 36.2615ZM43.1115 41.0964C40.6537 41.0964 38.2966 40.1201 36.5584 38.3826C34.8209 36.6443 33.8446 34.2873 33.8446 31.8295C33.8446 29.3717 34.821 27.0147 36.5584 25.2765C38.2967 23.5389 40.6537 22.5626 43.1115 22.5626C45.5693 22.5626 47.9264 23.539 49.6646 25.2765C51.4021 27.0148 52.3784 29.3717 52.3784 31.8295C52.3741 34.2859 51.3963 36.6407 49.6594 38.3776C47.9226 40.1145 45.5677 41.0922 43.1113 41.0966L43.1115 41.0964ZM65.6746 36.2615C64.499 36.2615 63.3715 35.7945 62.5404 34.9635C61.7094 34.1325 61.2425 33.005 61.2425 31.8294C61.2425 30.6537 61.7094 29.5263 62.5404 28.6952C63.3714 27.8642 64.4989 27.3973 65.6746 27.3973C66.8503 27.3973 67.9777 27.8642 68.8087 28.6952C69.6398 29.5262 70.1067 30.6537 70.1067 31.8294C70.1067 33.005 69.6397 34.1325 68.8087 34.9635C67.9777 35.7946 66.8503 36.2615 65.6746 36.2615ZM71.0255 13.0058C71.2168 13.2972 71.4327 13.5721 71.6701 13.8275C71.5931 13.4692 71.355 13.1663 71.0255 13.0058ZM14.6177 13.8275C14.8552 13.5721 15.0703 13.2972 15.2624 13.0058C14.9077 13.1497 14.6436 13.4555 14.553 13.8275H14.6177ZM71.0255 57.2131H71.5895L71.7025 56.3267C71.4262 56.6008 71.1729 56.8972 70.9449 57.2131H71.0255ZM14.6177 56.3267L14.7307 57.2131H15.2948C15.0868 56.9001 14.8552 56.6037 14.6012 56.3267H14.6177ZM81.7913 0H4.43211C3.25647 0 2.12902 0.466955 1.29796 1.29796C0.4669 2.12896 0 3.25643 0 4.43211V59.2282C0 60.4038 0.466956 61.5313 1.29796 62.3623C2.12896 63.1934 3.25643 63.6603 4.43211 63.6603H81.7913C82.9669 63.6603 84.0944 63.1933 84.9254 62.3623C85.7565 61.5313 86.2234 60.4039 86.2234 59.2282V4.43211C86.2234 3.25647 85.7564 2.12902 84.9254 1.29796C84.0944 0.4669 82.9669 0 81.7913 0ZM79.7766 47.9461C79.768 48.6102 79.232 49.1462 78.5679 49.1548C76.7526 49.1592 75.0129 49.8822 73.7292 51.1658C72.4456 52.4494 71.7225 54.1891 71.7183 56.0044C71.7096 56.6685 71.1736 57.2045 70.5095 57.2132H15.7135C15.0494 57.2045 14.5134 56.6685 14.5047 56.0044C14.5004 54.1892 13.7773 52.4494 12.4938 51.1658C11.2102 49.8822 9.47049 49.1591 7.65513 49.1548C6.99104 49.1462 6.45503 48.6102 6.44639 47.9461V15.7131C6.45503 15.049 6.99104 14.513 7.65513 14.5044C9.4704 14.5001 11.2102 13.777 12.4938 12.4934C13.7774 11.2098 14.5005 9.47014 14.5047 7.65478C14.5134 6.99069 15.0494 6.45468 15.7135 6.44604H70.5095C71.1736 6.45468 71.7096 6.99069 71.7183 7.65478C71.7226 9.47005 72.4457 11.2098 73.7292 12.4934C75.0128 13.777 76.7525 14.5001 78.5679 14.5044C79.232 14.513 79.768 15.049 79.7766 15.7131V47.9461ZM81.7913 72.5242H4.43211C2.81038 72.53 1.23902 71.9587 0.000165819 70.9126V72.1213C0.000165819 73.2969 0.467121 74.4244 1.29812 75.2554C2.12913 76.0865 3.2566 76.5534 4.43227 76.5534H81.7914C82.9671 76.5534 84.0945 76.0865 84.9256 75.2554C85.7566 74.4244 86.2235 73.297 86.2235 72.1213V70.8802C84.9889 71.9378 83.4176 72.5206 81.7916 72.5242H81.7913ZM81.7913 78.9708H4.43211C2.81038 78.9766 1.23902 78.4053 0.000165819 77.3592V78.5679C0.000165819 79.7435 0.467121 80.871 1.29812 81.702C2.12913 82.5331 3.2566 83 4.43227 83H81.7914C82.9671 83 84.0945 82.533 84.9256 81.702C85.7566 80.871 86.2235 79.7436 86.2235 78.5679V77.3268C84.9889 78.3844 83.4176 78.9672 81.7916 78.9708H81.7913Z" fill="url(#paint0_linear_15_260)"/>
<defs>
<linearGradient id="paint0_linear_15_260" x1="43.1119" y1="0" x2="43.1119" y2="83" gradientUnits="userSpaceOnUse">
<stop stop-color="#E5EFEC"/>
<stop offset="1" stop-color="#FEFFFF"/>
</linearGradient>
</defs>
</svg>
